# xmcd CD database file
#
# Track frame offsets:
#	150
#	27103
#	48296
#	62575
#	89588
#	119701
#	142839
#	167359
#	192866
#	206360
#	233278
#
# Disc length: 3620 seconds
#
# Revision: 0
# Processed by: cddbd v1.5.2PL0 Copyright (c) Steve Scherf et al.
# Submitted via: CDex 1.70beta2
#
DISCID=850e220b
DTITLE=Gutbucket - Flock
DYEAR=2011
DGENRE=Jazz
TTITLE0=Fuck You and Your Hipster Tie
TTITLE1=Zero is Short for Idiot
TTITLE2=4 9 8
TTITLE3=d0g Help Us
TTITLE4=Murakami
TTITLE5=Tryst 'n Shout
TTITLE6=Said the Trapeze to Gravity (Why Are You So ...
TTITLE7=Give Up
TTITLE8=Dyslexic Messiah (Born Against Atheist Suite ...
TTITLE9=Sacrificial Vegan (Born Against Atheist Suite ...
TTITLE10=Turning Manischewitz into Wine (Born Again ...
EXTD=YEAR: 2011
EXTT0=
EXTT1=
EXTT2=
EXTT3=
EXTT4=
EXTT5=
EXTT6=
EXTT7=
EXTT8=
EXTT9=
EXTT10=
PLAYORDER=
